<?xml version="1.0" encoding="utf-8"?>

<!DOCTYPE svg PUBLIC "-//W3C//DTD SVG 1.1//EN" "http://www.w3.org/Graphics/SVG/1.1/DTD/svg11.dtd">
<!-- Uploaded to: SVG Repo, www.svgrepo.com, Generator: SVG Repo Mixer Tools -->
<svg height="800px" width="800px" version="1.1" id="_x32_" xmlns="http://www.w3.org/2000/svg" xmlns:xlink="http://www.w3.org/1999/xlink" 
	 viewBox="0 0 512 512"  xml:space="preserve">
<style type="text/css">
	.st0{fill:#000000;}
</style>
<g>
	<path class="st0" d="M0,73.783v364.433h512v-11.175V73.783H0z M22.358,205.741h54.726v118.446H22.358V205.741z M244.827,320.936
		c-13.732-2.337-26.002-8.852-35.466-18.306c-11.954-11.962-19.316-28.383-19.318-46.63c0.003-18.254,7.364-34.668,19.318-46.638
		c9.465-9.454,21.735-15.962,35.466-18.306V320.936z M167.684,256c0.004,44.982,33.652,82.026,77.143,87.532v72.319H22.358v-69.307
		h77.084V183.383H22.358V96.141h222.465l0.004,72.328C201.332,173.989,167.688,211.017,167.684,256z M489.643,324.187h-54.726
		V205.741h54.726V324.187z M489.643,183.383h-77.088v163.161h77.088v69.307H267.185l-0.004-72.319
		c43.491-5.513,77.132-42.55,77.14-87.532c-0.008-44.983-33.652-82.01-77.14-87.532l-0.004-72.328h222.466V183.383z
		 M267.181,320.936v-129.88c13.732,2.345,25.998,8.853,35.459,18.306c11.955,11.969,19.316,28.384,19.319,46.638
		c-0.004,18.247-7.364,34.668-19.319,46.63C293.178,312.084,280.912,318.591,267.181,320.936z"/>
</g>
</svg>