<?xml version="1.0" standalone="no"?>
<!DOCTYPE svg PUBLIC "-//W3C//DTD SVG 20010904//EN"
 "http://www.w3.org/TR/2001/REC-SVG-20010904/DTD/svg10.dtd">
<svg version="1.0" xmlns="http://www.w3.org/2000/svg"
 width="260.000000pt" height="260.000000pt" viewBox="0 0 260.000000 260.000000"
 preserveAspectRatio="xMidYMid meet">
<metadata>
Created by potrace 1.14, written by Peter Selinger 2001-2017
</metadata>
<g transform="translate(0.000000,260.000000) scale(0.100000,-0.100000)"
fill="#000000" stroke="none">
<path d="M0 1300 l0 -1300 1300 0 1300 0 0 1300 0 1300 -1300 0 -1300 0 0
-1300z m1525 633 c135 -43 253 -132 337 -253 194 -282 145 -663 -115 -881
-127 -107 -271 -159 -437 -159 -244 0 -468 138 -585 361 -41 77 -45 109 -15
109 15 0 28 -16 50 -62 95 -205 267 -329 497 -358 99 -13 229 4 292 36 14 8
30 14 34 14 4 0 39 20 76 44 120 78 206 191 250 326 122 373 -158 771 -565
804 -73 6 -137 -1 -129 -13 2 -4 25 -8 51 -10 26 -1 52 -4 56 -7 5 -3 44 -7
86 -8 66 -2 89 -8 152 -39 136 -65 190 -128 190 -221 0 -55 -10 -62 -108 -71
-42 -5 -69 -12 -66 -17 4 -6 34 -7 74 -3 38 4 77 4 88 1 11 -4 35 -38 57 -81
33 -65 37 -80 31 -121 -3 -26 -10 -52 -15 -58 -5 -6 -19 -39 -31 -73 -12 -35
-28 -67 -34 -71 -18 -14 -101 -32 -149 -32 l-44 0 -51 109 c-29 59 -52 115
-52 124 0 25 49 149 65 167 25 28 17 36 -49 48 -104 20 -115 17 -175 -38 -30
-28 -57 -48 -59 -45 -3 2 -6 18 -7 35 -2 27 1 32 26 37 16 3 32 10 36 16 5 9
-48 3 -80 -9 -14 -5 -39 44 -30 59 3 5 -1 14 -8 19 -11 7 -11 11 -1 15 16 6
15 21 -3 39 -12 12 -15 13 -15 2 0 -21 -154 -70 -184 -59 -39 15 -52 92 -18
109 25 14 214 14 222 2 4 -7 20 1 40 20 25 23 41 30 64 28 29 -3 31 -5 28 -38
-2 -19 -9 -41 -14 -47 -8 -10 -2 -13 27 -13 29 0 35 3 27 13 -15 19 -24 74
-14 81 6 3 8 16 4 28 -4 18 -2 20 14 13 10 -4 30 -10 44 -12 24 -5 24 -4 -5
16 -37 26 -98 29 -88 5 5 -15 1 -16 -31 -10 -31 6 -43 3 -69 -17 -33 -25 -78
-27 -122 -6 -28 14 -26 69 3 82 12 6 22 14 22 18 0 15 -22 21 -33 10 -15 -15
-27 -14 -27 3 0 22 104 57 190 65 115 10 207 2 295 -26z m-525 -93 c0 -10 -14
-14 -38 -11 -8 1 -20 -6 -27 -16 -9 -12 -17 -15 -24 -8 -22 21 41 70 71 54 10
-5 18 -14 18 -19z m-180 -150 c0 -16 -3 -30 -8 -30 -4 0 -18 -21 -31 -47 -30
-59 -50 -83 -68 -83 -21 0 -15 29 18 89 33 58 67 101 81 101 4 0 8 -13 8 -30z
m85 -89 c3 -5 1 -12 -4 -15 -12 -8 -41 3 -41 15 0 12 37 12 45 0z m133 -57 c5
-8 28 -18 51 -21 37 -5 45 -11 57 -39 8 -18 14 -36 14 -38 0 -3 -19 -10 -42
-17 -23 -6 -53 -20 -67 -30 -21 -17 -26 -18 -40 -5 -13 12 -19 12 -34 2 -9 -8
-15 -20 -12 -27 4 -11 -9 -15 -61 -16 l-67 -2 6 60 c7 76 33 123 72 127 17 2
34 8 40 13 15 15 73 10 83 -7z m-324 -106 c-7 -66 -27 -112 -47 -105 -13 4
-11 70 4 130 7 27 15 37 30 37 19 0 20 -4 13 -62z m-378 -45 c-10 -10 -19 5
-10 18 6 11 8 11 12 0 2 -7 1 -15 -2 -18z m470 16 c13 -21 -18 -59 -48 -59
-24 0 -28 4 -28 28 0 16 3 32 7 35 10 11 61 8 69 -4z m-596 -18 c0 -12 -20
-25 -27 -18 -7 7 6 27 18 27 5 0 9 -4 9 -9z m1067 -7 c82 -27 142 -72 169
-125 13 -27 36 -73 51 -101 35 -71 33 -107 -11 -173 -48 -73 -79 -88 -175 -83
-89 4 -127 20 -158 67 -29 43 -29 51 0 43 20 -5 21 -4 8 12 -27 33 -2 27 38
-10 23 -20 43 -35 45 -33 12 13 -19 50 -61 71 -39 21 -58 25 -95 21 -57 -7
-87 2 -70 19 21 21 13 31 -18 25 -17 -4 -30 -2 -30 3 0 14 46 42 64 38 8 -2
16 2 18 7 2 6 -19 11 -47 13 -27 1 -60 8 -73 14 -18 9 -25 9 -31 0 -8 -13 -25
13 -34 53 -3 11 -8 28 -12 38 -7 16 2 17 97 17 58 0 108 -3 111 -7 4 -3 0 -14
-8 -23 -13 -15 -12 -19 10 -40 28 -26 46 -20 28 9 -14 22 -8 31 23 31 35 0 36
-14 8 -71 l-27 -53 24 -15 c13 -9 39 -29 59 -45 19 -15 14 -8 -12 17 l-48 45
23 41 c28 51 90 86 135 76 27 -6 30 -4 25 14 -6 24 10 27 53 11 40 -15 41 -4
3 19 -35 21 -98 28 -114 12 -6 -5 -27 -14 -48 -21 -35 -11 -40 -10 -72 15 -36
27 -44 52 -23 73 17 17 119 15 175 -4z m634 -41 c39 -101 -80 -425 -147 -399
-31 12 -5 157 52 283 8 18 21 51 30 74 25 73 47 87 65 42z m-1212 -65 c4 -13
11 -47 14 -76 l6 -53 -27 3 c-25 3 -27 7 -30 52 -5 83 17 127 37 74z m115 16
c21 -8 52 -112 37 -127 -7 -7 -14 -7 -24 1 -8 7 -27 9 -45 6 -37 -7 -52 14
-52 75 0 29 5 41 18 44 27 7 49 8 66 1z m6 -159 c7 -8 20 -15 30 -15 26 0 32
-12 14 -31 -10 -11 -12 -19 -5 -24 16 -9 13 -81 -3 -94 -20 -16 -48 16 -77 85
-21 53 -21 55 -4 74 22 24 29 25 45 5z m219 -328 c54 -32 84 -68 45 -53 -78
29 -233 154 -219 176 3 6 32 -13 63 -40 32 -28 82 -65 111 -83z m711 85 c0
-24 -163 -142 -197 -142 -35 0 48 75 138 125 48 26 59 29 59 17z m-325 -17
c35 -6 95 -58 95 -84 0 -19 -31 -51 -70 -71 -37 -20 -238 -17 -278 4 -32 17
-62 52 -62 73 0 7 17 31 37 54 l36 40 106 -6 c58 -3 120 -8 136 -10z"/>
<path d="M1120 1809 c0 -5 5 -7 10 -4 6 3 10 8 10 11 0 2 -4 4 -10 4 -5 0 -10
-5 -10 -11z"/>
<path d="M1370 1582 c23 -15 107 -26 95 -13 -6 6 -33 13 -60 17 -34 3 -45 2
-35 -4z"/>
<path d="M1045 1110 c3 -5 16 -10 28 -10 18 0 19 2 7 10 -20 13 -43 13 -35 0z"/>
</g>
</svg>
